<svg width="157" height="36" viewBox="0 0 157 36" fill="none" xmlns="http://www.w3.org/2000/svg">
<g clip-path="url(#clip0_927_4511)">
<path d="M17.857 35.961C27.787 35.961 35.837 27.911 35.837 17.981C35.837 8.051 27.788 0 17.858 0C8.688 0 1.122 6.863 0.016 15.733H4.826C5.895 9.502 11.323 4.76 17.858 4.76C25.16 4.76 31.079 10.679 31.079 17.98C31.0795 18.6887 31.0233 19.3963 30.911 20.096H11.643V22.343H30.341C28.539 27.501 23.631 31.201 17.857 31.201C11.276 31.201 5.817 26.392 4.805 20.096H0C1.047 29.029 8.643 35.961 17.857 35.961Z" fill="black"/>
<path d="M26.5969 20.096H9.11694C9.59272 22.0552 10.713 23.7978 12.298 25.044C13.883 26.2902 15.8407 26.9676 17.8569 26.9676C19.8732 26.9676 21.8309 26.2902 23.4159 25.044C25.0009 23.7978 26.1212 22.0552 26.5969 20.096ZM26.5639 15.733H9.14994C9.64939 13.8036 10.7755 12.0948 12.3515 10.8748C13.9274 9.65486 15.864 8.9929 17.8569 8.9929C19.8499 8.9929 21.7864 9.65486 23.3624 10.8748C24.9384 12.0948 26.0645 13.8036 26.5639 15.733ZM44.6539 30.611L48.4939 7.48798H65.1579L64.2999 12.546H53.9129L53.2799 16.521H62.8099L61.9519 21.579H52.4219L51.7899 25.553H62.1319L61.2739 30.611H44.6539ZM72.6869 7.48798L68.8469 30.611H62.6149L66.4549 7.48798H72.6869ZM70.1159 30.611L73.0059 13.269H79.2379L76.3479 30.611H70.1159ZM76.5289 11.553C75.6929 11.553 75.0089 11.259 74.4739 10.673C73.9469 10.077 73.7289 9.36298 73.8189 8.52698C73.9089 7.69098 74.2859 6.97998 74.9479 6.39298C75.6179 5.79798 76.3709 5.50098 77.2059 5.50098C78.0639 5.50098 78.7639 5.79798 79.3059 6.39298C79.8559 6.97998 80.0739 7.69098 79.9609 8.52698C79.8479 9.36198 79.4609 10.077 78.7979 10.672C78.1429 11.259 77.3869 11.552 76.5279 11.552L76.5289 11.553ZM77.8419 30.611L78.3839 27.179L87.4609 18.101L87.5059 18.011H80.1899L81.0029 13.269H95.6809L95.0939 17.063L86.7389 25.779L86.6929 25.869H93.8739L93.1069 30.611H77.8419ZM99.4039 30.882C97.7559 30.882 96.4729 30.468 95.5539 29.64C94.6359 28.812 94.3239 27.54 94.6169 25.824C94.8269 24.559 95.2799 23.54 95.9719 22.764C96.6744 21.9822 97.5583 21.3854 98.5459 21.026C99.6204 20.6309 100.746 20.3912 101.888 20.314C103.356 20.201 104.414 20.044 105.061 19.84C105.716 19.63 106.088 19.276 106.179 18.779V18.734C106.247 18.282 106.126 17.936 105.817 17.694C105.516 17.454 105.095 17.334 104.553 17.334C103.966 17.334 103.458 17.462 103.029 17.717C102.607 17.973 102.317 18.372 102.159 18.914H96.424C96.664 17.86 97.1579 16.889 97.9029 16.001C98.6549 15.105 99.6529 14.391 100.895 13.856C102.144 13.314 103.635 13.043 105.366 13.043C107.007 13.043 108.384 13.295 109.498 13.8C110.612 14.304 111.421 14.985 111.926 15.843C112.43 16.701 112.592 17.665 112.411 18.733L110.424 30.611H104.598L105.005 28.172H104.869C104.192 29.143 103.394 29.84 102.475 30.262C101.557 30.675 100.532 30.882 99.4039 30.882ZM102.114 26.953C102.814 26.953 103.48 26.739 104.113 26.31C104.752 25.873 105.14 25.26 105.276 24.47L105.501 23.024C105.12 23.1725 104.727 23.2896 104.327 23.374C103.891 23.472 103.424 23.566 102.927 23.656C102.182 23.769 101.614 23.988 101.222 24.311C100.831 24.627 100.601 25.011 100.533 25.463C100.466 25.937 100.575 26.306 100.861 26.569C101.154 26.825 101.572 26.953 102.114 26.953ZM135.656 19.456C135.235 21.97 134.399 24.078 133.15 25.779C131.9 27.48 130.384 28.763 128.6 29.629C126.816 30.4945 124.858 30.9386 122.875 30.927C120.707 30.927 118.826 30.457 117.23 29.517C115.634 28.575 114.471 27.197 113.741 25.384C113.011 23.57 112.864 21.353 113.301 18.734C113.707 16.219 114.535 14.104 115.785 12.388C117.034 10.672 118.558 9.37398 120.357 8.49298C122.153 7.61316 124.127 7.16102 126.127 7.17198C128.28 7.17198 130.15 7.64598 131.738 8.59498C133.334 9.54298 134.493 10.932 135.216 12.761C135.946 14.59 136.093 16.821 135.656 19.456ZM129.334 18.734C129.65 16.746 129.522 15.234 128.95 14.194C128.385 13.156 127.369 12.637 125.901 12.637C124.23 12.637 122.849 13.239 121.757 14.443C120.674 15.64 119.962 17.311 119.624 19.456C119.262 21.466 119.39 22.971 120.007 23.972C120.625 24.966 121.656 25.462 123.101 25.462C124.75 25.462 126.108 24.879 127.177 23.712C128.253 22.538 128.972 20.879 129.334 18.734ZM149.886 14.714C149.954 13.969 149.773 13.386 149.344 12.964C148.915 12.535 148.192 12.32 147.176 12.32C146.205 12.32 145.471 12.486 144.974 12.817C144.485 13.141 144.195 13.562 144.105 14.082C143.849 15.113 144.767 15.851 146.86 16.295L148.666 16.701C151.128 17.243 152.825 18.121 153.758 19.332C154.692 20.544 155.012 22.03 154.718 23.792C154.334 26.072 153.209 27.826 151.342 29.053C149.483 30.273 147.086 30.883 144.15 30.883C142.148 30.883 140.447 30.585 139.047 29.99C137.654 29.388 136.646 28.47 136.021 27.235C135.404 25.994 135.253 24.409 135.569 22.482H141.531C141.395 23.543 141.625 24.352 142.219 24.91C142.822 25.459 143.721 25.734 144.918 25.734C145.934 25.734 146.728 25.554 147.3 25.192C147.88 24.823 148.215 24.356 148.305 23.792C148.395 23.272 148.207 22.836 147.741 22.482C147.281 22.121 146.431 21.805 145.189 21.534L142.976 21.037C141.011 20.585 139.528 19.84 138.527 18.801C137.526 17.763 137.172 16.34 137.466 14.534C137.688 13.0986 138.319 11.7576 139.284 10.672C140.262 9.56598 141.504 8.70698 143.01 8.09798C144.523 7.48098 146.197 7.17198 148.034 7.17198C149.901 7.17198 151.463 7.48398 152.72 8.10898C153.984 8.73398 154.891 9.61098 155.441 10.739C155.998 11.869 156.148 13.194 155.892 14.714H149.886Z" fill="black"/>
</g>
<defs>
<clipPath id="clip0_927_4511">
<rect width="157" height="36" fill="white"/>
</clipPath>
</defs>
</svg>
